<svg id="Layer_1" data-name="Layer 1" xmlns="http://www.w3.org/2000/svg" viewBox="0 0 2048 2048"><defs><style>.cls-1{fill:#008e43;}</style></defs><title>RRJM-LOGO-UPDATED</title><path class="cls-1" d="M1457.5,1165.1h-867v38.49h867Zm57.29,50.21H533.21v38.49h981.58ZM473.36,1265.52V1304H1574.64v-38.49Z"/><path class="cls-1" d="M944.4,1214.93c-237.55-43-395.55-269.73-352.22-505.42S864,317,1101.56,360s395.54,269.73,352.2,505.44S1181.93,1257.92,944.4,1214.93Zm149.9-815.39c-215.58-39-423,103.28-462.3,317.18s104.08,419.68,319.66,458.7,423-103.27,462.28-317.17S1309.87,438.56,1094.3,399.54Z"/><path class="cls-1" d="M608.41,1093.14l-11.48-16.45a23.17,23.17,0,0,1-3.95-8.24,15.48,15.48,0,0,1-.08-6.73,12.91,12.91,0,0,1,2.63-5.27,20.57,20.57,0,0,1,4.1-3.81,15,15,0,0,1,10.29-2.53,16.15,16.15,0,0,1,5.4,1.67,15.35,15.35,0,0,1,4.77,3.8l12.23-28.06,5.53,7.92-12.46,26.16,4.94,7.08,20.76-14.29,4.43,6.35Zm16.33-20.61-5.81-8.34a29.24,29.24,0,0,0-2.86-3.45,11.68,11.68,0,0,0-3.36-2.47,7.29,7.29,0,0,0-3.88-.71,9.5,9.5,0,0,0-4.5,1.83,9.4,9.4,0,0,0-3.29,3.53,7.27,7.27,0,0,0-.7,3.86,12,12,0,0,0,1.15,4,27.62,27.62,0,0,0,2.27,3.87l5.81,8.33Z"/><path class="cls-1" d="M611.52,1024.14A9.5,9.5,0,0,0,615,1021a11.17,11.17,0,0,0,1.71-4.17,13.08,13.08,0,0,0,0-4.67,14.88,14.88,0,0,0-1.63-4.63,10.75,10.75,0,0,0-4.23-4.37,18.49,18.49,0,0,0-5.88-2l1-6.81q9.79,1.53,15.06,11a20.57,20.57,0,0,1,2.61,7.89,17.65,17.65,0,0,1-.72,7.45,18.68,18.68,0,0,1-3.72,6.45,22.48,22.48,0,0,1-6.33,5,20.81,20.81,0,0,1-7.71,2.49,19.64,19.64,0,0,1-7.59-.52,19,19,0,0,1-6.75-3.44,19.78,19.78,0,0,1-5.17-6.16,18.94,18.94,0,0,1-2.59-8.35,16.85,16.85,0,0,1,1.3-7.26,18.24,18.24,0,0,1,4.1-5.94,26.47,26.47,0,0,1,5.94-4.37l2.26-1.24Zm-16.18-17.22a15.54,15.54,0,0,0-3.53,2.81,9.6,9.6,0,0,0-2.1,3.47,9.37,9.37,0,0,0-.4,4.12,12.48,12.48,0,0,0,1.57,4.59,11.87,11.87,0,0,0,3.25,3.78,11.92,11.92,0,0,0,8.42,2.37,10,10,0,0,0,3.86-1.13Z"/><path class="cls-1" d="M572.8,973.85a11,11,0,0,0-1.2,4,8.9,8.9,0,0,0,.87,4.67,8.79,8.79,0,0,0,2.79,3.65,3.55,3.55,0,0,0,3.7.47,3.64,3.64,0,0,0,2.08-2.1,8.34,8.34,0,0,0,.52-3,14.48,14.48,0,0,0-.39-3.29l-.65-2.89a32.11,32.11,0,0,1-.5-4.55,12.26,12.26,0,0,1,.49-4.08,9.13,9.13,0,0,1,2-3.39,10.92,10.92,0,0,1,3.81-2.57,10.73,10.73,0,0,1,5.63-1,11.46,11.46,0,0,1,4.88,1.75,14.8,14.8,0,0,1,3.92,3.68,23.34,23.34,0,0,1,2.85,4.87,21.87,21.87,0,0,1,2,8.18,15.06,15.06,0,0,1-2.32,8l-6.36-3.2a22.19,22.19,0,0,0,1.3-4.86,9.76,9.76,0,0,0-.88-5.42,14.33,14.33,0,0,0-1.38-2.41,8.71,8.71,0,0,0-1.82-1.94,5.8,5.8,0,0,0-2.12-1,3.38,3.38,0,0,0-2.25.24,3.57,3.57,0,0,0-2,2,7.15,7.15,0,0,0-.56,2.86,17.76,17.76,0,0,0,.32,3.12c.2,1,.38,2,.56,2.76.28,1.59.48,3.1.6,4.57a13.8,13.8,0,0,1-.29,4.16,8.83,8.83,0,0,1-1.78,3.57,9.77,9.77,0,0,1-3.84,2.73,10.55,10.55,0,0,1-5.28.94,11.41,11.41,0,0,1-4.71-1.55,14.86,14.86,0,0,1-3.89-3.41,19.5,19.5,0,0,1-4.44-11.87,11.66,11.66,0,0,1,2.18-7.1Z"/><path class="cls-1" d="M556.32,959.3,554,952.42l5.23-1.71,0-.14a13.92,13.92,0,0,1-6.34-4,17.85,17.85,0,0,1-4-6.61,20.05,20.05,0,0,1-1-8.08,17.4,17.4,0,0,1,2.15-7.12,19.39,19.39,0,0,1,4.89-5.71,24,24,0,0,1,15.09-4.9,19.36,19.36,0,0,1,7.3,1.73,18.15,18.15,0,0,1,6,4.49,20.08,20.08,0,0,1,4,7.12,17.54,17.54,0,0,1,.76,7.86,13.1,13.1,0,0,1-2.75,6.73l0,.16,26.94-8.77,2.26,6.86Zm-.68-20.59a13,13,0,0,0,2.6,4.64,11.55,11.55,0,0,0,3.86,2.89,12.36,12.36,0,0,0,4.78,1.08,16.48,16.48,0,0,0,5.4-.83,16,16,0,0,0,4.83-2.51,12.22,12.22,0,0,0,3.22-3.67,11.29,11.29,0,0,0,1.38-4.59,14.08,14.08,0,0,0-3.27-9.92,11.52,11.52,0,0,0-3.86-2.88,12.18,12.18,0,0,0-4.78-1.08,16.46,16.46,0,0,0-5.4.82,16,16,0,0,0-4.83,2.51,12.2,12.2,0,0,0-3.22,3.67,11.61,11.61,0,0,0-1.39,4.59A13.13,13.13,0,0,0,555.64,938.71Z"/><path class="cls-1" d="M559.32,905.4a19.28,19.28,0,0,1-8,.08,20.89,20.89,0,0,1-7.16-2.88,20.21,20.21,0,0,1-5.57-5.42,20.16,20.16,0,0,1,4.95-28.24,19.59,19.59,0,0,1,7.35-3.16,20.28,20.28,0,0,1,8.06-.08,19.62,19.62,0,0,1,7.14,2.91,20.42,20.42,0,0,1,6,28.12,19.57,19.57,0,0,1-5.36,5.53A20,20,0,0,1,559.32,905.4Zm-1.6-7.55a15.42,15.42,0,0,0,5.08-2,12,12,0,0,0,3.6-3.3,11.48,11.48,0,0,0,1.88-4.41,13.08,13.08,0,0,0-.1-5.31A12.76,12.76,0,0,0,566.1,878a11.3,11.3,0,0,0-3.51-3.29A12,12,0,0,0,558,873.1a16.76,16.76,0,0,0-10.54,2.2,12.23,12.23,0,0,0-3.6,3.31,11.42,11.42,0,0,0-1.87,4.41,13.12,13.12,0,0,0,.09,5.32,13.31,13.31,0,0,0,2.08,4.9,11.66,11.66,0,0,0,3.52,3.28,12,12,0,0,0,4.63,1.59A15.89,15.89,0,0,0,557.72,897.85Z"/><path class="cls-1" d="M530.11,855.78l-.77-7.18,5.89-.63,0-.15a10.59,10.59,0,0,1-5.45-4.2,15.6,15.6,0,0,1-2.71-7.55,16.05,16.05,0,0,1,.29-5.32,11.89,11.89,0,0,1,2.15-4.67,12.77,12.77,0,0,1,4.23-3.47,17.8,17.8,0,0,1,6.46-1.8l24.56-2.55.75,7.2-22.55,2.33a13.23,13.23,0,0,0-4.47,1.2,8.41,8.41,0,0,0-2.86,2.23,7.27,7.27,0,0,0-1.39,2.93,9.79,9.79,0,0,0-.19,3.29,11.5,11.5,0,0,0,1.17,4.08,8.52,8.52,0,0,0,2.64,3.12,11.21,11.21,0,0,0,4.22,1.82,18,18,0,0,0,5.81.2l19.64-2,.77,7.2Z"/><path class="cls-1" d="M535.17,786.88a11,11,0,0,0-2.66,3.21,9.11,9.11,0,0,0-1,4.63,8.63,8.63,0,0,0,1.17,4.46,3.45,3.45,0,0,0,3.22,1.82,3.71,3.71,0,0,0,2.74-1.12,8.75,8.75,0,0,0,1.66-2.61,14.7,14.7,0,0,0,.91-3.17c.2-1.14.37-2.1.52-2.91a33.26,33.26,0,0,1,1.3-4.39,12.54,12.54,0,0,1,2-3.57,9.35,9.35,0,0,1,3.12-2.39,11,11,0,0,1,4.52-.91,10.8,10.8,0,0,1,5.57,1.28,11.38,11.38,0,0,1,3.82,3.47,14.66,14.66,0,0,1,2.19,4.9,24.68,24.68,0,0,1,.73,5.57,22,22,0,0,1-1.31,8.34,15.1,15.1,0,0,1-5.24,6.47l-4.62-5.39a22.88,22.88,0,0,0,3.09-4,9.66,9.66,0,0,0,1.28-5.32,13,13,0,0,0-.32-2.76A9,9,0,0,0,557,790a5.36,5.36,0,0,0-1.57-1.73,3.62,3.62,0,0,0-2.16-.67,3.78,3.78,0,0,0-2.66,1.06,7.72,7.72,0,0,0-1.62,2.43,19.24,19.24,0,0,0-.92,3c-.22,1-.41,2-.56,2.78a45.75,45.75,0,0,1-1.22,4.43,13.06,13.06,0,0,1-1.88,3.73,8.81,8.81,0,0,1-3,2.63,10.07,10.07,0,0,1-4.59,1,10.54,10.54,0,0,1-5.25-1.16,11.11,11.11,0,0,1-3.74-3.24,14.74,14.74,0,0,1-2.26-4.62,19.66,19.66,0,0,1-.81-5.24A19.22,19.22,0,0,1,526,787a11.75,11.75,0,0,1,4.77-5.7Z"/><path class="cls-1" d="M512.13,768.56a5.12,5.12,0,0,1-3.69-1.75A5,5,0,0,1,507,763a5.33,5.33,0,1,1,5.09,5.53ZM526,767.5l.34-7.22L564.63,762l-.34,7.22Z"/><path class="cls-1" d="M504.37,741.71l.9-7.18L533.39,738l0-.16a13.23,13.23,0,0,1-4-6.08,17.67,17.67,0,0,1-.77-7.86,20.23,20.23,0,0,1,2.52-7.75,18.26,18.26,0,0,1,5-5.53,19.21,19.21,0,0,1,6.84-3.1,23.07,23.07,0,0,1,8.08-.37,22.6,22.6,0,0,1,7.71,2.31,19.89,19.89,0,0,1,5.86,4.65,17.54,17.54,0,0,1,3.51,6.59,20,20,0,0,1,.53,8.12A17.61,17.61,0,0,1,566,736a13.63,13.63,0,0,1-5.45,5.12l0,.16L566,742l-.89,7.18Zm57.41-12.87a13,13,0,0,0-.35-5.29,11.44,11.44,0,0,0-2.25-4.24,11.9,11.9,0,0,0-3.87-3,15.54,15.54,0,0,0-5.23-1.53,16.21,16.21,0,0,0-5.46.21,12.24,12.24,0,0,0-4.48,2,11.44,11.44,0,0,0-3.22,3.57,13.92,13.92,0,0,0-1.3,10.37,11.73,11.73,0,0,0,2.24,4.24,12.58,12.58,0,0,0,3.88,3,16.85,16.85,0,0,0,10.68,1.31,12,12,0,0,0,4.49-2,11.45,11.45,0,0,0,3.22-3.57A13,13,0,0,0,561.78,728.84Z"/><path class="cls-1" d="M512.44,687.16l1.45-7.08,60,12.08-1.45,7.08Z"/><path class="cls-1" d="M562,669.94a9.65,9.65,0,0,0,4.7.18,10.93,10.93,0,0,0,4.16-1.81,12.94,12.94,0,0,0,3.31-3.33,14.9,14.9,0,0,0,2.09-4.41,10.77,10.77,0,0,0,.07-6.08,18.28,18.28,0,0,0-2.77-5.53l5.55-4.12q5.91,7.9,3,18.34a20.82,20.82,0,0,1-3.69,7.45,17.76,17.76,0,0,1-5.79,4.8,18.73,18.73,0,0,1-7.21,2,22.94,22.94,0,0,1-8.06-.82,21.29,21.29,0,0,1-7.27-3.57,19.24,19.24,0,0,1-5-5.67,18.32,18.32,0,0,1-2.39-7.12,19.64,19.64,0,0,1,.66-8,18.73,18.73,0,0,1,4-7.75,17.06,17.06,0,0,1,6-4.29,18.67,18.67,0,0,1,7.12-1.4,27.4,27.4,0,0,1,7.33,1l2.49.69Zm.6-23.53a15.77,15.77,0,0,0-4.49-.46,10.13,10.13,0,0,0-4,1,9.34,9.34,0,0,0-3.18,2.67,12.35,12.35,0,0,0-2.13,4.38,11.47,11.47,0,0,0-.34,4.94,11.81,11.81,0,0,0,1.51,4.31,12.24,12.24,0,0,0,2.83,3.24,9.79,9.79,0,0,0,3.55,1.86Z"/><path class="cls-1" d="M610.92,589.13a30.77,30.77,0,0,1-7.33,9.79,28.05,28.05,0,0,1-9.83,5.67A29.44,29.44,0,0,1,582.48,606a33.16,33.16,0,0,1-21.43-10.28,29.19,29.19,0,0,1-5.92-9.63,27.69,27.69,0,0,1-1.61-11.17,30.23,30.23,0,0,1,3.17-11.77,30.56,30.56,0,0,1,7.34-9.77,28,28,0,0,1,9.82-5.69,29.44,29.44,0,0,1,11.28-1.37,31.79,31.79,0,0,1,11.69,3.16,31.12,31.12,0,0,1,9.74,7.14,29,29,0,0,1,5.92,9.61,27.77,27.77,0,0,1,1.62,11.18A30.6,30.6,0,0,1,610.92,589.13ZM604.36,586a20.65,20.65,0,0,0,.79-17,21.45,21.45,0,0,0-4.62-7,25.24,25.24,0,0,0-7.31-5.22,25.72,25.72,0,0,0-8.65-2.45,22.09,22.09,0,0,0-8.43.76,21.4,21.4,0,0,0-7.37,4,21.14,21.14,0,0,0-5.52,7.17,20.5,20.5,0,0,0-.79,16.93,21.37,21.37,0,0,0,4.62,7,26.36,26.36,0,0,0,16,7.65,21.5,21.5,0,0,0,8.43-.76,21.07,21.07,0,0,0,7.37-4A20.81,20.81,0,0,0,604.36,586Z"/><path class="cls-1" d="M593.26,537.28l4.54-7,31,6.08-18.84-24.9,4.19-6.5L638.33,538,634,544.71Z"/><path class="cls-1" d="M641.1,505.25a9.66,9.66,0,0,0,4.28,1.94,11.89,11.89,0,0,0,4.53-.1,13.44,13.44,0,0,0,4.33-1.84,14.71,14.71,0,0,0,3.63-3.32,10.73,10.73,0,0,0,2.4-5.59,19,19,0,0,0-.44-6.16l6.7-1.72c1.64,6.35.2,12.39-4.27,18.08A21.09,21.09,0,0,1,656,512a17.8,17.8,0,0,1-7.18,2.28,18.8,18.8,0,0,1-7.47-.83,22.48,22.48,0,0,1-7.12-3.8,20.85,20.85,0,0,1-5.37-6,19.55,19.55,0,0,1-2.5-7.14,18.37,18.37,0,0,1,.51-7.49,20.09,20.09,0,0,1,3.67-7.14,19,19,0,0,1,6.72-5.67,17.08,17.08,0,0,1,7.23-1.67,18.49,18.49,0,0,1,7.12,1.38,27.1,27.1,0,0,1,6.4,3.68l2,1.59Zm9.55-21.56a15.7,15.7,0,0,0-4-2.12,10.43,10.43,0,0,0-4-.53,9.71,9.71,0,0,0-4,1.26,12.34,12.34,0,0,0-3.64,3.26A11.43,11.43,0,0,0,632.8,490a11.79,11.79,0,0,0,1.13,8.63,9.8,9.8,0,0,0,2.57,3.06Z"/><path class="cls-1" d="M651.61,458.16l4.95-5.32,4.34,4,.11-.12a10.36,10.36,0,0,1-.73-3.29,12.93,12.93,0,0,1,.27-3.41,14.22,14.22,0,0,1,1.19-3.36,12.5,12.5,0,0,1,2-2.94,10.39,10.39,0,0,1,2.56-2l5.54,5.53c-.52.33-1,.67-1.51,1a9.85,9.85,0,0,0-1.32,1.18q-3.63,3.88-3.36,8c.18,2.73,1.82,5.49,4.91,8.34l14.14,13-5,5.32Z"/><path class="cls-1" d="M696.24,427.15a11.17,11.17,0,0,0-4.18.19,9.29,9.29,0,0,0-4.16,2.36,8.82,8.82,0,0,0-2.54,3.84,3.45,3.45,0,0,0,.8,3.61,3.67,3.67,0,0,0,2.67,1.25,8.73,8.73,0,0,0,3.06-.53,14.51,14.51,0,0,0,3-1.45c1-.62,1.81-1.13,2.51-1.57a37.53,37.53,0,0,1,4.17-2,12.84,12.84,0,0,1,4-.88,9.42,9.42,0,0,1,3.87.71,10.74,10.74,0,0,1,3.72,2.7,10.46,10.46,0,0,1,2.77,5,11.25,11.25,0,0,1,0,5.13,14.73,14.73,0,0,1-2.2,4.91,24.25,24.25,0,0,1-3.68,4.27,22.09,22.09,0,0,1-7.11,4.63,15.11,15.11,0,0,1-8.35.47l.92-7a22.28,22.28,0,0,0,5.07-.39,9.87,9.87,0,0,0,4.84-2.61,15.61,15.61,0,0,0,1.85-2.1,8.81,8.81,0,0,0,1.22-2.35,5.31,5.31,0,0,0,.25-2.32,3.44,3.44,0,0,0-1-2,3.65,3.65,0,0,0-2.56-1.25,7.52,7.52,0,0,0-2.91.43,17.41,17.41,0,0,0-2.85,1.33c-.94.53-1.75,1-2.45,1.46q-2.12,1.17-4.14,2.07a13.52,13.52,0,0,1-4.06,1.1,8.7,8.7,0,0,1-4-.47,9.79,9.79,0,0,1-3.85-2.69,10.23,10.23,0,0,1-2.65-4.64,10.72,10.72,0,0,1-.09-4.91,14.63,14.63,0,0,1,1.94-4.76,18.5,18.5,0,0,1,3.38-4.12,19.19,19.19,0,0,1,6.44-4,11.91,11.91,0,0,1,7.45-.32Z"/><path class="cls-1" d="M722.6,420.56a9.57,9.57,0,0,0,3.66,2.92,11.29,11.29,0,0,0,4.44,1,13.39,13.39,0,0,0,4.65-.75,14.76,14.76,0,0,0,4.33-2.33,10.73,10.73,0,0,0,3.7-4.83,18.62,18.62,0,0,0,1.08-6.08l6.94-.06q0,9.87-8.61,16.52a21.35,21.35,0,0,1-7.43,3.8,18,18,0,0,1-7.54.46,19.15,19.15,0,0,1-7-2.61,22.8,22.8,0,0,1-6-5.42,20.61,20.61,0,0,1-3.71-7.16,19.38,19.38,0,0,1-.67-7.53,18.67,18.67,0,0,1,2.35-7.14,20.1,20.1,0,0,1,5.32-6,19,19,0,0,1,7.9-3.86,17.18,17.18,0,0,1,7.43.14,18.31,18.31,0,0,1,6.56,3.06,26.86,26.86,0,0,1,5.3,5.13l1.59,2ZM737.17,402a15.14,15.14,0,0,0-3.34-3,10.06,10.06,0,0,0-3.79-1.51,9.66,9.66,0,0,0-4.15.26,12.33,12.33,0,0,0-4.33,2.27,11.48,11.48,0,0,0-3.25,3.77,11.72,11.72,0,0,0-1,8.63A9.86,9.86,0,0,0,719,416Z"/><path class="cls-1" d="M747.31,381a20.32,20.32,0,0,1,3.75-7.36,24.4,24.4,0,0,1,6.09-5.47,22.16,22.16,0,0,1,6.68-3,14.45,14.45,0,0,1,5.72-.28,11.43,11.43,0,0,1,4.62,1.9,13.05,13.05,0,0,1,3.36,3.55L788,386.8c.73,1.12,1.42,2.16,2.07,3.08s1.29,1.79,1.94,2.59l-5.48,3.43q-1.75-2.32-3.32-4.76l-.14.09a13.76,13.76,0,0,1-2,7.46,18.09,18.09,0,0,1-5.69,5.37,17.68,17.68,0,0,1-4.69,2.1,12.37,12.37,0,0,1-4.76.41,10.64,10.64,0,0,1-4.35-1.49,12.35,12.35,0,0,1-5.49-9.73,12.26,12.26,0,0,1,1.64-5.82,21.61,21.61,0,0,1,4.47-5.47,47.29,47.29,0,0,1,6.58-4.95l4.52-2.82-.87-1.37a8.25,8.25,0,0,0-2-2.14,8.09,8.09,0,0,0-2.84-1.3,8.37,8.37,0,0,0-3.39-.06,10.7,10.7,0,0,0-3.79,1.57,15,15,0,0,0-2.9,2.3,15.24,15.24,0,0,0-1.88,2.37,11.82,11.82,0,0,0-1.23,2.43c-.3.83-.6,1.61-.89,2.36Zm25.51,1.84q-2.18,1.38-4.33,3.06a21,21,0,0,0-3.58,3.53,9.45,9.45,0,0,0-1.87,3.84,5,5,0,0,0,.8,3.87,5.25,5.25,0,0,0,4.43,2.82,10.83,10.83,0,0,0,5.88-2,11.44,11.44,0,0,0,3.76-3.55,9.55,9.55,0,0,0,1.48-4,10.28,10.28,0,0,0-.36-4,14.11,14.11,0,0,0-1.62-3.59l-1.3-2Z"/><path class="cls-1" d="M806.43,352.6a11.27,11.27,0,0,0-4.08-.93,9.06,9.06,0,0,0-4.64,1.16,8.8,8.8,0,0,0-3.49,3,3.44,3.44,0,0,0-.22,3.69,3.67,3.67,0,0,0,2.24,1.94,8.93,8.93,0,0,0,3.08.31,14.54,14.54,0,0,0,3.28-.6c1.11-.34,2.06-.61,2.86-.83a33.61,33.61,0,0,1,4.54-.8,12.55,12.55,0,0,1,4.14.21,9.31,9.31,0,0,1,3.53,1.73,12.09,12.09,0,0,1,4.18,9.12,11.5,11.5,0,0,1-1.44,4.94,15,15,0,0,1-3.45,4.12,24.39,24.39,0,0,1-4.7,3.14,22.91,22.91,0,0,1-8.12,2.55,15.12,15.12,0,0,1-8.17-1.79l2.81-6.49a22.89,22.89,0,0,0,5,1,9.77,9.77,0,0,0,5.39-1.21,15.65,15.65,0,0,0,2.34-1.53,8.6,8.6,0,0,0,1.82-1.92,5.57,5.57,0,0,0,.88-2.18,3.46,3.46,0,0,0-.38-2.2,3.67,3.67,0,0,0-2.12-1.9,7.35,7.35,0,0,0-2.93-.35,17.74,17.74,0,0,0-3.1.51c-1,.27-2,.51-2.76.74-1.57.37-3.08.67-4.56.88a13.44,13.44,0,0,1-4.2,0,9.21,9.21,0,0,1-3.71-1.53,10,10,0,0,1-3-3.62,10.36,10.36,0,0,1-1.28-5.18,11,11,0,0,1,1.25-4.77,15.23,15.23,0,0,1,3.16-4.06,19.84,19.84,0,0,1,4.38-3.06,20.08,20.08,0,0,1,7.29-2.12,11.89,11.89,0,0,1,7.26,1.69Z"/><path class="cls-1" d="M840,306.23l11.05-3.43,30.39,35.65.31-.09L886,291.89l11-3.43,17.19,54.25L906.8,345l-14.13-44.6-.16.06-4.33,50.35-4.94,1.55-32.58-38.86-.16.06,14.13,44.6-7.42,2.32Z"/><path class="cls-1" d="M921.38,307.58a20.33,20.33,0,0,1,6.28-5.39,24.5,24.5,0,0,1,7.72-2.79,22.08,22.08,0,0,1,7.31-.23,14.41,14.41,0,0,1,5.41,1.88,11.35,11.35,0,0,1,3.54,3.49,12.72,12.72,0,0,1,1.76,4.55l3.45,19.15c.24,1.31.48,2.53.73,3.62s.53,2.14.81,3.12L952,336.1c-.49-1.86-.92-3.75-1.26-5.65l-.16,0a13.85,13.85,0,0,1-4.73,6.14,18.24,18.24,0,0,1-7.3,2.84,17.22,17.22,0,0,1-5.15.18,13.16,13.16,0,0,1-4.58-1.39,10.65,10.65,0,0,1-3.46-3,11,11,0,0,1-1.9-4.69,10.89,10.89,0,0,1,.53-6.37,12.61,12.61,0,0,1,3.75-4.79A21.82,21.82,0,0,1,934,316a45.67,45.67,0,0,1,8-2.12l5.27-.92-.29-1.59a8,8,0,0,0-1.07-2.75,7.57,7.57,0,0,0-2.14-2.27,8.32,8.32,0,0,0-3.12-1.34,11.33,11.33,0,0,0-4.1,0,15.46,15.46,0,0,0-3.55,1,15.82,15.82,0,0,0-2.65,1.49,11.74,11.74,0,0,0-2.07,1.81c-.59.64-1.18,1.25-1.72,1.84Zm22.93,11.28a50.92,50.92,0,0,0-5.18,1.22,20.11,20.11,0,0,0-4.66,1.92,9.67,9.67,0,0,0-3.2,2.84,5.13,5.13,0,0,0-.74,3.89,5.25,5.25,0,0,0,3,4.27,10.73,10.73,0,0,0,6.19.37,11.59,11.59,0,0,0,4.85-1.86,9.42,9.42,0,0,0,2.88-3.18,9.75,9.75,0,0,0,1.2-3.84,13.81,13.81,0,0,0-.13-3.92l-.42-2.38Z"/><path class="cls-1" d="M966.18,295.58l7.27-.57.47,5.84.17,0a10.67,10.67,0,0,1,4.36-5.31,16,16,0,0,1,7.67-2.51,16.77,16.77,0,0,1,5.35.43,12,12,0,0,1,4.66,2.24,12.79,12.79,0,0,1,3.39,4.29,17.14,17.14,0,0,1,1.66,6.44l2,24.41-7.27.59L994.08,309a12.75,12.75,0,0,0-1.09-4.45,8.38,8.38,0,0,0-2.19-2.88,7.21,7.21,0,0,0-2.92-1.47,10.48,10.48,0,0,0-3.31-.26,11.8,11.8,0,0,0-4.14,1.06,8.77,8.77,0,0,0-3.2,2.55,10.65,10.65,0,0,0-1.93,4.14,17.66,17.66,0,0,0-.35,5.77L976.54,333l-7.26.59Z"/><path class="cls-1" d="M1015.81,292.28l7.28.16-.12,5.47h.16a13.81,13.81,0,0,1,5.89-4.61,17.84,17.84,0,0,1,7.61-1.53,20.86,20.86,0,0,1,8,1.71,17.9,17.9,0,0,1,6.06,4.39,19.16,19.16,0,0,1,3.78,6.48,22.14,22.14,0,0,1,1.21,7.86,22.62,22.62,0,0,1-1.56,7.89,18.73,18.73,0,0,1-4.07,6.25,18.12,18.12,0,0,1-6.24,4.08,20.81,20.81,0,0,1-8.09,1.36,18.05,18.05,0,0,1-7.74-1.91,13.13,13.13,0,0,1-5.47-4.82h-.17l-.62,28.1-7.29-.15Zm19.78,6.22a13.21,13.21,0,0,0-5.28.9,11.73,11.73,0,0,0-4,2.63,12.46,12.46,0,0,0-2.59,4.12,16.5,16.5,0,0,0-.24,10.69,12,12,0,0,0,2.41,4.24,11.86,11.86,0,0,0,3.91,2.82A13.79,13.79,0,0,0,1035,325a13.21,13.21,0,0,0,5.28-.9,11.69,11.69,0,0,0,4-2.63,12.06,12.06,0,0,0,2.6-4.14,16.44,16.44,0,0,0,.24-10.67,12.32,12.32,0,0,0-2.41-4.24,12,12,0,0,0-3.91-2.82A13.46,13.46,0,0,0,1035.59,298.5Z"/><path class="cls-1" d="M1066.05,313a19.17,19.17,0,0,1,2.58-7.51,20.24,20.24,0,0,1,12.1-9.18,21.2,21.2,0,0,1,15.9,2.06,19.9,19.9,0,0,1,9.33,11.95,19.22,19.22,0,0,1,.56,7.92,19.76,19.76,0,0,1-7.71,13.3,20.25,20.25,0,0,1-7,3.39,20,20,0,0,1-8.15.53,20.63,20.63,0,0,1-13.61-7.63,19.69,19.69,0,0,1-4-14.83Zm7.7,1a15.94,15.94,0,0,0,.19,5.41,12.22,12.22,0,0,0,2,4.47,11.61,11.61,0,0,0,3.58,3.22,14.28,14.28,0,0,0,10.43,1.33,11.42,11.42,0,0,0,4.29-2.2,11.82,11.82,0,0,0,3-3.82,15.62,15.62,0,0,0,1.58-5.18,15.45,15.45,0,0,0-.19-5.41,11.82,11.82,0,0,0-1.95-4.45,11.21,11.21,0,0,0-3.57-3.22,14,14,0,0,0-10.44-1.35,11.48,11.48,0,0,0-4.29,2.19,11.84,11.84,0,0,0-3,3.83A15.7,15.7,0,0,0,1073.75,314Z"/><path class="cls-1" d="M1118.65,300.62l7.92,2,1.25,29.66.16,0,16-25.28,7.53,1.9,2.31,29.95.16,0,15-25.55,7.53,1.92L1155,349.16l-7.14-1.82-2.75-30-.16,0-16.08,25.28-7.53-1.92Z"/><path class="cls-1" d="M1184.37,341.65a9.56,9.56,0,0,0-.63,4.63,11.28,11.28,0,0,0,1.42,4.28,12.89,12.89,0,0,0,3,3.56,15.2,15.2,0,0,0,4.24,2.5,11,11,0,0,0,6.08.64,18.8,18.8,0,0,0,5.81-2.21l3.62,5.86c-5.65,3.39-11.89,3.81-18.69,1.2a21,21,0,0,1-7.1-4.36,17.53,17.53,0,0,1-4.29-6.16,18.4,18.4,0,0,1-1.37-7.31,22.36,22.36,0,0,1,1.58-7.89,21,21,0,0,1,4.27-6.84,19.94,19.94,0,0,1,6.15-4.45,19.12,19.12,0,0,1,7.38-1.69,20,20,0,0,1,8,1.39,19.34,19.34,0,0,1,7.41,4.73,17.1,17.1,0,0,1,3.73,6.37,18.26,18.26,0,0,1,.73,7.18,26.75,26.75,0,0,1-1.69,7.14l-.94,2.41Zm23.55,2.81a15.41,15.41,0,0,0,.88-4.4,9.36,9.36,0,0,0-3-7.41,12.62,12.62,0,0,0-4.19-2.49,11.65,11.65,0,0,0-4.93-.83,12,12,0,0,0-8,3.59,9.47,9.47,0,0,0-2.2,3.34Z"/><path class="cls-1" d="M1232.67,337.9l6.55,3.16-2.59,5.28.15.08a10.2,10.2,0,0,1,3-1.65,13.28,13.28,0,0,1,3.37-.75,14.9,14.9,0,0,1,3.57.16,12.6,12.6,0,0,1,3.43,1.08,10.22,10.22,0,0,1,2.7,1.82l-3.72,6.89c-.47-.41-.94-.79-1.43-1.14a9.13,9.13,0,0,0-1.53-.92q-4.8-2.32-8.66-.86c-2.58,1-4.78,3.31-6.62,7.08l-8.42,17.2-6.55-3.16Z"/><path class="cls-1" d="M1297.89,351.38l16.74,11.14a23.47,23.47,0,0,1,6.69,6.26,14.94,14.94,0,0,1,2.56,6.23,13,13,0,0,1-.5,5.87,19.18,19.18,0,0,1-6.19,9.14,13.14,13.14,0,0,1-5.26,2.68,15.68,15.68,0,0,1-6.8,0,23.49,23.49,0,0,1-8.37-3.78l-10.28-6.85L1272.4,402.9l-6.45-4.29Zm-7.62,25.1,8.47,5.65a30.18,30.18,0,0,0,3.93,2.18,12.27,12.27,0,0,0,4,1.1,7.27,7.27,0,0,0,3.87-.77,9.13,9.13,0,0,0,3.51-3.31,9.33,9.33,0,0,0,1.77-4.49,7.31,7.31,0,0,0-.76-3.85,11.94,11.94,0,0,0-2.55-3.29,29.06,29.06,0,0,0-3.53-2.79l-8.47-5.63Z"/><path class="cls-1" d="M1342.66,378l5.73,4.48-37.82,47.76-5.73-4.48Z"/><path class="cls-1" d="M1343.44,413.51a20.74,20.74,0,0,1,8.14,1.61,24.14,24.14,0,0,1,7,4.36,22,22,0,0,1,4.67,5.59,14,14,0,0,1,1.79,5.41,11.11,11.11,0,0,1-.61,4.92,13.12,13.12,0,0,1-2.54,4.16L1348.69,454c-.91,1-1.72,1.92-2.44,2.78s-1.38,1.73-2,2.55l-4.8-4.31c1.19-1.53,2.43-3,3.74-4.46l-.12-.09a14.15,14.15,0,0,1-7.8,0,18.06,18.06,0,0,1-6.73-4,17.55,17.55,0,0,1-3.3-3.94,12.27,12.27,0,0,1-1.68-4.43,10.14,10.14,0,0,1,.29-4.57,10.94,10.94,0,0,1,2.56-4.35,11.14,11.14,0,0,1,5.41-3.5,12.59,12.59,0,0,1,6.1,0,21.54,21.54,0,0,1,6.5,2.81,46.63,46.63,0,0,1,6.57,5l4,3.55,1.09-1.18a8.27,8.27,0,0,0,1.53-2.53,8,8,0,0,0,.5-3.06,7.9,7.9,0,0,0-.85-3.25,10.6,10.6,0,0,0-2.54-3.22,15,15,0,0,0-5.81-3.31,13.41,13.41,0,0,0-2.7-.53c-.88-.06-1.73-.14-2.53-.22Zm5,24.89a46.19,46.19,0,0,0-4.12-3.31,20,20,0,0,0-4.39-2.49,9.87,9.87,0,0,0-4.22-.77,5.94,5.94,0,0,0-5.1,6.81,10.84,10.84,0,0,0,3.48,5.08,11.72,11.72,0,0,0,4.47,2.65,9.48,9.48,0,0,0,4.29.33,10.34,10.34,0,0,0,3.8-1.41,14.44,14.44,0,0,0,3-2.51l1.63-1.79Z"/><path class="cls-1" d="M1391.7,468.49a15,15,0,0,0-.54-5.26,11.72,11.72,0,0,0-2.79-4.6,11.47,11.47,0,0,0-4.34-3.06,10.3,10.3,0,0,0-4.73-.71,13.32,13.32,0,0,0-4.75,1.29,17,17,0,0,0-4.3,2.89,14.14,14.14,0,0,0-3.12,4.06,12.49,12.49,0,0,0-1.36,4.63,11.42,11.42,0,0,0,.58,4.72,12.38,12.38,0,0,0,2.72,4.4,11.71,11.71,0,0,0,4.37,3.1,13.8,13.8,0,0,0,5.1.8l-.3,7.26a16.29,16.29,0,0,1-7.8-1.75,22.85,22.85,0,0,1-6.43-4.9,22.12,22.12,0,0,1-4.45-6.91,18.74,18.74,0,0,1-1.3-7.39,17.94,17.94,0,0,1,1.85-7.26,21.68,21.68,0,0,1,5-6.53,22.26,22.26,0,0,1,7-4.45,19,19,0,0,1,7.47-1.32,18.58,18.58,0,0,1,7.34,1.81,22.65,22.65,0,0,1,11,11.87,17.43,17.43,0,0,1,1.17,7.94Z"/><path class="cls-1" d="M1395.51,491.11a9.66,9.66,0,0,0-3,3.62,11.06,11.06,0,0,0-1.06,4.38,13.22,13.22,0,0,0,.71,4.63,14.24,14.24,0,0,0,2.3,4.31,11,11,0,0,0,4.84,3.71,19.46,19.46,0,0,0,6.12,1.14v6.86q-9.93-.06-16.56-8.67a20.79,20.79,0,0,1-3.78-7.39,17.7,17.7,0,0,1-.4-7.49,18.37,18.37,0,0,1,2.7-6.95,22.42,22.42,0,0,1,5.5-5.88,20.78,20.78,0,0,1,7.25-3.63,20,20,0,0,1,7.59-.61,19.17,19.17,0,0,1,7.18,2.39,20.31,20.31,0,0,1,6,5.34,18.54,18.54,0,0,1,3.82,7.86,16.94,16.94,0,0,1-.18,7.38,18.14,18.14,0,0,1-3.16,6.47,27.07,27.07,0,0,1-5.2,5.22l-2.06,1.57Zm18.6,14.61a15.34,15.34,0,0,0,3.06-3.28,9.2,9.2,0,0,0,1.33-7.88,12.65,12.65,0,0,0-2.25-4.32,11.86,11.86,0,0,0-3.78-3.25,12.27,12.27,0,0,0-4.38-1.38,12.43,12.43,0,0,0-4.31.3,9.87,9.87,0,0,0-3.63,1.68Z"/><path class="cls-1" d="M1439.88,513.41l3.43,5.82-5.18,3,.08.14a6.05,6.05,0,0,1,2.38.06,13.67,13.67,0,0,1,3.3,1.06,16,16,0,0,1,3.48,2.27,13.6,13.6,0,0,1,3.05,3.67,13.4,13.4,0,0,1,2.1,7.06,13.12,13.12,0,0,1-2.22,6.77,12.38,12.38,0,0,1,7.27,1.84,14.87,14.87,0,0,1,5,5,16,16,0,0,1,2.41,7,11.64,11.64,0,0,1-1.08,5.74,14.75,14.75,0,0,1-3.56,4.61,33.14,33.14,0,0,1-5.12,3.67l-19.31,11.16-3.66-6.24,18.46-10.69a29.66,29.66,0,0,0,3.5-2.35,9.39,9.39,0,0,0,2.48-2.79,6.56,6.56,0,0,0,.87-3.37,8.52,8.52,0,0,0-1.36-4.16q-2.64-4.5-6.59-4.82a14.39,14.39,0,0,0-8.34,2.21l-18.12,10.5-3.67-6.26,17.34-10a37.32,37.32,0,0,0,4.2-2.75,11.76,11.76,0,0,0,2.82-2.94,6.15,6.15,0,0,0,1-3.37,8.32,8.32,0,0,0-1.35-4.1,9.41,9.41,0,0,0-2.56-2.85,8.84,8.84,0,0,0-3.59-1.58,11.24,11.24,0,0,0-4.5.07,17.84,17.84,0,0,0-5.27,2.12l-17.21,10-3.66-6.24Z"/><path class="cls-1" d="M1457.66,591.13a9.66,9.66,0,0,0-3.78,2.77,11.25,11.25,0,0,0-2.11,4,12.93,12.93,0,0,0-.47,4.65,14.53,14.53,0,0,0,1.17,4.75,10.77,10.77,0,0,0,3.76,4.78,19.1,19.1,0,0,0,5.66,2.59l-1.72,6.67q-9.62-2.51-13.9-12.47a20.92,20.92,0,0,1-1.81-8.11,17.72,17.72,0,0,1,1.47-7.33,18.79,18.79,0,0,1,4.34-6.08,22.72,22.72,0,0,1,6.79-4.35,21,21,0,0,1,7.93-1.75,20.33,20.33,0,0,1,7.5,1.27,19.13,19.13,0,0,1,6.38,4.08,20.08,20.08,0,0,1,4.52,6.65,18.59,18.59,0,0,1,1.75,8.55,16.87,16.87,0,0,1-2,7.1,18.41,18.41,0,0,1-4.67,5.52,27.7,27.7,0,0,1-6.34,3.78l-2.39,1Zm14.39,18.72a15.63,15.63,0,0,0,3.79-2.44,9.9,9.9,0,0,0,2.42-3.25,9.28,9.28,0,0,0,.81-4.06,12.43,12.43,0,0,0-1.1-4.73,11.81,11.81,0,0,0-6.75-6.49,12.83,12.83,0,0,0-4.25-.79,9.9,9.9,0,0,0-4,.77Z"/><path class="cls-1" d="M1494.57,623.83l2.17,6.9-5.65,1.75.05.16a10.6,10.6,0,0,1,6.18,3.06,15.66,15.66,0,0,1,4.15,6.88,16.67,16.67,0,0,1,.76,5.28,11.81,11.81,0,0,1-1.19,5,12.88,12.88,0,0,1-3.46,4.24,18.46,18.46,0,0,1-6,3L1468,667.37l-2.17-6.9,21.66-6.69a12.86,12.86,0,0,0,4.15-2A8.39,8.39,0,0,0,1494,649a7.22,7.22,0,0,0,.79-3.13,10.19,10.19,0,0,0-.48-3.28,11.36,11.36,0,0,0-1.94-3.76,8.55,8.55,0,0,0-3.21-2.55,11.11,11.11,0,0,0-4.5-1,18.54,18.54,0,0,0-5.73.93l-18.87,5.82-2.17-6.9Z"/><path class="cls-1" d="M1506.52,691.93l-2.25-10.12-17,3.72c-1.06.24-2.09.49-3.11.77a8,8,0,0,0-2.63,1.2,4.36,4.36,0,0,0-1.63,2,5.46,5.46,0,0,0-.06,3.25,14.24,14.24,0,0,0,.82,2.55,7.78,7.78,0,0,0,1.4,2.24l-6.47,1.41a9.24,9.24,0,0,1-1.72-3,23.65,23.65,0,0,1-1-3,14.33,14.33,0,0,1-.26-6.55,7.9,7.9,0,0,1,2.23-3.94,9.61,9.61,0,0,1,3.79-2.16c1.47-.45,3-.86,4.51-1.2l19.53-4.27-1.82-8.16,6.16-1.36,1.82,8.16,10.51-2.31,1.58,7.06-10.52,2.31,2.26,10.13Z"/><path class="cls-1" d="M1246.31,667.58a817.93,817.93,0,0,1-150.23-36.65l-55,149.86L1212,842.5A610.71,610.71,0,0,0,1246.31,667.58Zm-43.43,199.73L1032,805.6,977.4,954.47a816.22,816.22,0,0,1,138.46,68.73A613.39,613.39,0,0,0,1202.88,867.31ZM949.2,533.68a791.28,791.28,0,0,0,131,63.41l57-155.48C1078.59,428.5,1009.86,464.55,949.2,533.68Zm121.88,88.22a815.57,815.57,0,0,1-138.47-68.73,613.36,613.36,0,0,0-87,155.89l170.87,61.71ZM1053.9,424.26a370.47,370.47,0,0,0-198,39.41,576.41,576.41,0,0,0,71.2,55.49A334.27,334.27,0,0,1,1053.9,424.26Zm309.2,222.93a365.67,365.67,0,0,0-125.83-156.7A329.57,329.57,0,0,1,1272.6,644.3,582,582,0,0,0,1363.1,647.19Zm-116.45-6.27c-1.8-91.31-31-162.94-84.44-190.28l-57,155.48A793.5,793.5,0,0,0,1246.65,640.92ZM836.32,734.37A610.47,610.47,0,0,0,802.53,907.8a817.93,817.93,0,0,1,150.23,36.65l54.61-148.87L836.5,733.87Zm-16.07-33.9a630.39,630.39,0,0,1,89.69-159.61A591.63,591.63,0,0,1,831.79,477a364,364,0,0,0-148,173.56L820.43,700Zm408,175.43a629.94,629.94,0,0,1-89.7,159.61,591.07,591.07,0,0,1,78.16,63.82,363.9,363.9,0,0,0,148-173.56L1228.05,876.4Zm144.63-202.33a597.6,597.6,0,0,1-100.72-2.28,627.37,627.37,0,0,1-35,180.3L1373.84,901A360.45,360.45,0,0,0,1372.86,673.57ZM776.46,904.75a627.17,627.17,0,0,1,34.87-180l-136.57-49.7a360.45,360.45,0,0,0,1,227.39A597.6,597.6,0,0,1,776.46,904.75Zm218.12,247.36a370.35,370.35,0,0,0,198-39.57,576.49,576.49,0,0,0-71.2-55.5A334.28,334.28,0,0,1,994.58,1152.11Zm104.7-109.42a791.66,791.66,0,0,0-131-63.41l-57,155.48C969.89,1147.88,1038.62,1111.82,1099.28,1042.69ZM685.58,928.13l-.36,1a365.57,365.57,0,0,0,126,156.77A329.65,329.65,0,0,1,776.08,931,582,582,0,0,0,685.58,928.13Zm116.25,7.32c1.8,91.32,31,162.94,84.43,190.28l57-155.48A793.71,793.71,0,0,0,801.83,935.45Z"/><path class="cls-1" d="M275.2,1740v-81.33h8.14V1740Z"/><path class="cls-1" d="M327.65,1740v-41.06q0-3.21-.11-6.18a17,17,0,0,0-1-5.29,8,8,0,0,0-2.75-3.72,9.15,9.15,0,0,0-5.49-1.39,8,8,0,0,0-5.26,1.63,10.59,10.59,0,0,0-3,4.28,21.76,21.76,0,0,0-1.37,6c-.22,2.23-.32,4.48-.32,6.76v39h-8V1675.7h8v7.65a14.27,14.27,0,0,1,1.85-3.32,14,14,0,0,1,2.75-2.73,13.09,13.09,0,0,1,3.59-1.84,13.38,13.38,0,0,1,4.31-.67,16.87,16.87,0,0,1,6.17,1,11.58,11.58,0,0,1,4.15,2.7,12.25,12.25,0,0,1,2.56,4.07,23.56,23.56,0,0,1,1.32,5,45.08,45.08,0,0,1,.48,5.62c.06,2,.08,3.9.08,5.83v41Z"/><path class="cls-1" d="M361.07,1654.79v20.86h12.77V1683H361.07v36.57q0,3.92.16,6.56a13.46,13.46,0,0,0,.84,4.27,4.44,4.44,0,0,0,2,2.36,8.32,8.32,0,0,0,3.8.72,14.77,14.77,0,0,0,4.8-.72,27.48,27.48,0,0,0,3.18-1.26l.75,6.68a20.08,20.08,0,0,1-3.82,1.85,15.92,15.92,0,0,1-5.71.94,16.54,16.54,0,0,1-7.52-1.44,9.77,9.77,0,0,1-4.23-4.21,18.47,18.47,0,0,1-1.89-6.73,83.94,83.94,0,0,1-.43-9V1683h-6.63v-7.32H353v-20.86Z"/><path class="cls-1" d="M419.22,1718.27v1.12c0,1.75-.06,3.5-.18,5.24a30.36,30.36,0,0,1-.78,5,18.1,18.1,0,0,1-1.75,4.44,12.11,12.11,0,0,1-3.1,3.57,14.36,14.36,0,0,1-4.83,2.39,24.92,24.92,0,0,1-6.92.85,22.2,22.2,0,0,1-7-1,14.52,14.52,0,0,1-4.88-2.71,12.79,12.79,0,0,1-3.12-4.06,23.06,23.06,0,0,1-1.78-5,33.27,33.27,0,0,1-.78-5.61q-.16-2.94-.16-5.83v-17.59q0-3,.19-6a34,34,0,0,1,.81-5.67,22.5,22.5,0,0,1,1.77-5,13.08,13.08,0,0,1,3.13-4,14.07,14.07,0,0,1,4.85-2.67,22,22,0,0,1,6.92-1,23.57,23.57,0,0,1,7,.91,14.13,14.13,0,0,1,4.85,2.49,12.41,12.41,0,0,1,3.1,3.69,18.67,18.67,0,0,1,1.75,4.54,28.59,28.59,0,0,1,.75,5.05c.11,1.75.16,3.46.16,5.13v10.86l-27.37,4.65v4.6q0,3.21.16,6.23a16.29,16.29,0,0,0,1.11,5.32,8.16,8.16,0,0,0,2.91,3.69,9.53,9.53,0,0,0,5.57,1.39,11,11,0,0,0,5.39-1.1,6.81,6.81,0,0,0,2.88-3,12.28,12.28,0,0,0,1.17-4.41q.21-2.52.21-5.4v-1.12Zm-17.62-36a9.51,9.51,0,0,0-5.41,1.33,8.19,8.19,0,0,0-2.94,3.62,16.22,16.22,0,0,0-1.18,5.32c-.15,2-.22,4.18-.22,6.47v6l19.4-3.42v-5.14c0-1.78-.06-3.52-.16-5.21a12.94,12.94,0,0,0-1.08-4.55,7.4,7.4,0,0,0-2.88-3.23A10.45,10.45,0,0,0,401.6,1682.28Z"/><path class="cls-1" d="M457.07,1683.56a11.72,11.72,0,0,1-2-.59,9.7,9.7,0,0,0-3.24-.48h0a8.54,8.54,0,0,0-5.23,1.45,9.32,9.32,0,0,0-3,3.85,18.24,18.24,0,0,0-1.37,5.51q-.33,3.09-.38,6.36V1740h-8V1675.7h8v7.54a17.34,17.34,0,0,1,1.59-3.42,10.77,10.77,0,0,1,2.29-2.68,10.2,10.2,0,0,1,3.18-1.76,12.61,12.61,0,0,1,4.2-.64,12.17,12.17,0,0,1,1.94.16,9.4,9.4,0,0,1,1.94.53Z"/><path class="cls-1" d="M494.37,1740v-41.06c0-2.14,0-4.2-.11-6.18a17,17,0,0,0-1-5.29,7.92,7.92,0,0,0-2.76-3.72,9.11,9.11,0,0,0-5.49-1.39,8,8,0,0,0-5.25,1.63,10.4,10.4,0,0,0-3,4.28,22.13,22.13,0,0,0-1.38,6q-.31,3.35-.32,6.76v39h-8V1675.7h8v7.65a14.68,14.68,0,0,1,1.86-3.32,13.43,13.43,0,0,1,2.75-2.73,13,13,0,0,1,3.58-1.84,13.38,13.38,0,0,1,4.31-.67,16.83,16.83,0,0,1,6.17,1,11.49,11.49,0,0,1,4.15,2.7,12.09,12.09,0,0,1,2.56,4.07,23.56,23.56,0,0,1,1.32,5,47,47,0,0,1,.49,5.62c.05,2,.08,3.9.08,5.83v41Z"/><path class="cls-1" d="M543.85,1740v-7.38a17.25,17.25,0,0,1-1.59,3.35,10.66,10.66,0,0,1-2.32,2.65,10.22,10.22,0,0,1-3.17,1.73,13,13,0,0,1-4.18.62,18.33,18.33,0,0,1-8.27-1.63,12.8,12.8,0,0,1-5-4.36,16.89,16.89,0,0,1-2.48-6.31,40.36,40.36,0,0,1-.68-7.49,52.5,52.5,0,0,1,.43-6.76,13,13,0,0,1,2.11-5.7,11.49,11.49,0,0,1,4.9-3.93,21.91,21.91,0,0,1,8.89-1.47,31.81,31.81,0,0,1,6.76.59,32.31,32.31,0,0,1,4.56,1.34V1699q0-3.42-.22-6.47a17.17,17.17,0,0,0-1.15-5.32,7.94,7.94,0,0,0-2.89-3.58,9.57,9.57,0,0,0-5.39-1.31,9,9,0,0,0-5,1.2,8,8,0,0,0-2.8,3.16,12.86,12.86,0,0,0-1.24,4.35,43.22,43.22,0,0,0-.27,4.81v.86h-8v-.86c0-1.56.07-3.18.21-4.83a28.23,28.23,0,0,1,.84-4.82,18.38,18.38,0,0,1,1.81-4.41,12.74,12.74,0,0,1,3.09-3.63,14.43,14.43,0,0,1,4.66-2.46,21,21,0,0,1,6.58-.91,20.71,20.71,0,0,1,8.84,1.63,13.48,13.48,0,0,1,5.41,4.44,17.1,17.1,0,0,1,2.72,6.49,39.26,39.26,0,0,1,.76,7.81V1740Zm-9.81-6.62a8.63,8.63,0,0,0,5-1.29,8.9,8.9,0,0,0,3-3.42,15.71,15.71,0,0,0,1.45-4.89,42.3,42.3,0,0,0,.38-5.7v-5.72a12.21,12.21,0,0,0-3.88-1.77,24.34,24.34,0,0,0-6-.58,12,12,0,0,0-5.37,1,7.17,7.17,0,0,0-2.93,2.62,9,9,0,0,0-1.22,3.61,33.63,33.63,0,0,0-.24,4,26.28,26.28,0,0,0,.41,4.73,10.5,10.5,0,0,0,1.48,3.88,7.25,7.25,0,0,0,3,2.59A11.44,11.44,0,0,0,534,1733.35Z"/><path class="cls-1" d="M577.81,1654.79v20.86h12.77V1683H577.81v36.57c0,2.61.06,4.8.16,6.56a13.46,13.46,0,0,0,.84,4.27,4.45,4.45,0,0,0,2.05,2.36,8.29,8.29,0,0,0,3.8.72,14.75,14.75,0,0,0,4.79-.72,27.48,27.48,0,0,0,3.18-1.26l.76,6.68a20.21,20.21,0,0,1-3.83,1.85,15.92,15.92,0,0,1-5.71.94,16.6,16.6,0,0,1-7.52-1.44,9.77,9.77,0,0,1-4.23-4.21,18.48,18.48,0,0,1-1.88-6.73,83.75,83.75,0,0,1-.44-9V1683h-6.63v-7.32h6.63v-20.86Z"/><path class="cls-1" d="M603.64,1660.14a4.24,4.24,0,0,1,1.16-3.21,5.14,5.14,0,0,1,3.69-1.12c1.87,0,3.19.37,4,1.12a4.28,4.28,0,0,1,1.16,3.21,4.1,4.1,0,0,1-1.16,3.13c-.77.73-2.09,1.09-4,1.09a5.23,5.23,0,0,1-3.69-1.09A4.07,4.07,0,0,1,603.64,1660.14Zm.91,79.83V1675.7h8V1740Z"/><path class="cls-1" d="M627.09,1699.07c0-2,.07-4,.19-6a36.21,36.21,0,0,1,.78-5.67,21.12,21.12,0,0,1,1.78-5,13.69,13.69,0,0,1,3.12-4,13.88,13.88,0,0,1,4.83-2.67,25.37,25.37,0,0,1,13.93,0,14.41,14.41,0,0,1,4.88,2.7,12.79,12.79,0,0,1,3.12,4.06,22,22,0,0,1,1.75,5,34.34,34.34,0,0,1,.76,5.61q.16,3,.16,5.83v17.64q0,3-.19,6a38.42,38.42,0,0,1-.78,5.66,21.33,21.33,0,0,1-1.75,5,13.29,13.29,0,0,1-3.1,4,13.56,13.56,0,0,1-4.83,2.68,25.46,25.46,0,0,1-13.92,0,14.43,14.43,0,0,1-4.88-2.71,12.82,12.82,0,0,1-3.13-4.06,23,23,0,0,1-1.77-5,32.27,32.27,0,0,1-.79-5.61c-.1-2-.16-3.9-.16-5.83Zm17.62-16.79a9.59,9.59,0,0,0-5.39,1.31,7.86,7.86,0,0,0-2.88,3.58,17.17,17.17,0,0,0-1.16,5.32q-.21,3-.21,6.47v17.75q0,3.21.16,6.21a16.71,16.71,0,0,0,1.08,5.29,8.1,8.1,0,0,0,2.88,3.69,9.42,9.42,0,0,0,5.52,1.39,9.57,9.57,0,0,0,5.39-1.31,7.87,7.87,0,0,0,2.89-3.58,17.18,17.18,0,0,0,1.15-5.33c.15-2,.22-4.18.22-6.47v-17.69c0-2.18-.06-4.26-.16-6.26a16.77,16.77,0,0,0-1.08-5.29,8.1,8.1,0,0,0-2.88-3.69A9.46,9.46,0,0,0,644.71,1682.28Z"/><path class="cls-1" d="M704.38,1740v-41.06q0-3.21-.11-6.18a17,17,0,0,0-1-5.29,8,8,0,0,0-2.75-3.72,9.15,9.15,0,0,0-5.49-1.39,8,8,0,0,0-5.26,1.63,10.59,10.59,0,0,0-3,4.28,21.76,21.76,0,0,0-1.37,6c-.22,2.23-.32,4.48-.32,6.76v39h-8V1675.7h8v7.65a14.27,14.27,0,0,1,1.85-3.32,14,14,0,0,1,2.75-2.73,13.09,13.09,0,0,1,3.59-1.84,13.38,13.38,0,0,1,4.31-.67,16.87,16.87,0,0,1,6.17,1,11.58,11.58,0,0,1,4.15,2.7,12.25,12.25,0,0,1,2.56,4.07,23.56,23.56,0,0,1,1.32,5,45.08,45.08,0,0,1,.48,5.62c.06,2,.08,3.9.08,5.83v41Z"/><path class="cls-1" d="M753.86,1740v-7.38a17.25,17.25,0,0,1-1.59,3.35,10.87,10.87,0,0,1-2.32,2.65,10.39,10.39,0,0,1-3.18,1.73,12.89,12.89,0,0,1-4.17.62,18.37,18.37,0,0,1-8.28-1.63,12.87,12.87,0,0,1-5-4.36,17.06,17.06,0,0,1-2.48-6.31,40.37,40.37,0,0,1-.67-7.49,50.77,50.77,0,0,1,.43-6.76,13.13,13.13,0,0,1,2.1-5.7,11.52,11.52,0,0,1,4.91-3.93,21.87,21.87,0,0,1,8.89-1.47,29,29,0,0,1,11.31,1.93V1699q0-3.42-.21-6.47a17.17,17.17,0,0,0-1.16-5.32,7.86,7.86,0,0,0-2.88-3.58,9.59,9.59,0,0,0-5.39-1.31,8.94,8.94,0,0,0-5,1.2,7.9,7.9,0,0,0-2.8,3.16,12.86,12.86,0,0,0-1.24,4.35,43.22,43.22,0,0,0-.27,4.81v.86h-8v-.86c0-1.56.08-3.18.22-4.83a27.29,27.29,0,0,1,.84-4.82,18.76,18.76,0,0,1,1.8-4.41,12.77,12.77,0,0,1,3.1-3.63,14.33,14.33,0,0,1,4.66-2.46,24.52,24.52,0,0,1,15.41.72,13.52,13.52,0,0,1,5.42,4.44,17.1,17.1,0,0,1,2.72,6.49,39.28,39.28,0,0,1,.75,7.81V1740Zm-9.81-6.62a8.63,8.63,0,0,0,5-1.29,8.87,8.87,0,0,0,3-3.42,15.72,15.72,0,0,0,1.46-4.89,42.32,42.32,0,0,0,.37-5.7v-5.72a12,12,0,0,0-3.88-1.77,24.28,24.28,0,0,0-6-.58,11.9,11.9,0,0,0-5.36,1,7.2,7.2,0,0,0-2.94,2.62,9,9,0,0,0-1.21,3.61,33.63,33.63,0,0,0-.24,4,26.31,26.31,0,0,0,.4,4.73,10.68,10.68,0,0,0,1.48,3.88,7.31,7.31,0,0,0,3,2.59A11.51,11.51,0,0,0,744.05,1733.35Z"/><path class="cls-1" d="M778.23,1740v-83.84h8V1740Z"/><path class="cls-1" d="M834.24,1668.48,835,1740h-8.14v-81.33h11.75l13.74,57.43L866,1658.64h11.69V1740h-8.14l.81-71.49L856.34,1728h-8Z"/><path class="cls-1" d="M920.1,1740v-7.38a17.25,17.25,0,0,1-1.59,3.35,10.87,10.87,0,0,1-2.32,2.65,10.27,10.27,0,0,1-3.18,1.73,12.89,12.89,0,0,1-4.17.62,18.3,18.3,0,0,1-8.27-1.63,12.9,12.9,0,0,1-5-4.36,17.06,17.06,0,0,1-2.48-6.31,41.24,41.24,0,0,1-.67-7.49,50.77,50.77,0,0,1,.43-6.76,13.13,13.13,0,0,1,2.1-5.7,11.52,11.52,0,0,1,4.91-3.93,21.91,21.91,0,0,1,8.89-1.47,29,29,0,0,1,11.31,1.93V1699q0-3.42-.21-6.47a16.89,16.89,0,0,0-1.16-5.32,7.86,7.86,0,0,0-2.88-3.58,9.57,9.57,0,0,0-5.39-1.31,9,9,0,0,0-5,1.2,7.9,7.9,0,0,0-2.8,3.16,12.86,12.86,0,0,0-1.24,4.35,43.22,43.22,0,0,0-.27,4.81v.86h-8v-.86c0-1.56.07-3.18.21-4.83a28.23,28.23,0,0,1,.84-4.82,18.76,18.76,0,0,1,1.8-4.41,12.93,12.93,0,0,1,3.1-3.63,14.33,14.33,0,0,1,4.66-2.46,20.91,20.91,0,0,1,6.58-.91,20.66,20.66,0,0,1,8.83,1.63,13.52,13.52,0,0,1,5.42,4.44,17.1,17.1,0,0,1,2.72,6.49,39.26,39.26,0,0,1,.76,7.81V1740Zm-9.81-6.62a8.63,8.63,0,0,0,5-1.29,8.9,8.9,0,0,0,3-3.42,15.71,15.71,0,0,0,1.45-4.89,42.32,42.32,0,0,0,.37-5.7v-5.72a12,12,0,0,0-3.88-1.77,24.28,24.28,0,0,0-6-.58,11.9,11.9,0,0,0-5.36,1,7.11,7.11,0,0,0-2.93,2.62,8.89,8.89,0,0,0-1.22,3.61,33.63,33.63,0,0,0-.24,4,27.25,27.25,0,0,0,.4,4.73,10.51,10.51,0,0,0,1.49,3.88,7.25,7.25,0,0,0,3,2.59A11.44,11.44,0,0,0,910.29,1733.35Z"/><path class="cls-1" d="M971.79,1740v-41.06c0-2.14,0-4.2-.11-6.18a16.72,16.72,0,0,0-1-5.29,7.9,7.9,0,0,0-2.75-3.72,9.11,9.11,0,0,0-5.49-1.39,8,8,0,0,0-5.26,1.63,10.59,10.59,0,0,0-3,4.28,22.13,22.13,0,0,0-1.37,6c-.22,2.23-.32,4.48-.32,6.76v39h-8V1675.7h8v7.65a14.31,14.31,0,0,1,1.86-3.32,13.43,13.43,0,0,1,2.75-2.73,13,13,0,0,1,3.58-1.84,13.38,13.38,0,0,1,4.31-.67,16.87,16.87,0,0,1,6.17,1,11.58,11.58,0,0,1,4.15,2.7,12.09,12.09,0,0,1,2.56,4.07,23.56,23.56,0,0,1,1.32,5,45.08,45.08,0,0,1,.48,5.62c.06,2,.09,3.9.09,5.83v41Z"/><path class="cls-1" d="M995.62,1759.54V1675.7h8v7.11a18.51,18.51,0,0,1,1.56-3.26,9.61,9.61,0,0,1,5.39-4.22,13.32,13.32,0,0,1,4.15-.59,19,19,0,0,1,6.52,1,12.24,12.24,0,0,1,7.3,6.76,22.67,22.67,0,0,1,1.56,5,39.55,39.55,0,0,1,.65,5.61c.09,2,.14,3.91.14,5.83v17.64q0,4.5-.41,8.86a23.53,23.53,0,0,1-2,7.78,13.13,13.13,0,0,1-4.82,5.53q-3.24,2.12-8.9,2.11a13.33,13.33,0,0,1-4.15-.58,10.53,10.53,0,0,1-3.12-1.64,10,10,0,0,1-2.29-2.48,15.75,15.75,0,0,1-1.59-3.21v26.57Zm17.67-26.25a9.47,9.47,0,0,0,5.37-1.31,8,8,0,0,0,2.85-3.58,16.89,16.89,0,0,0,1.16-5.33c.15-2,.22-4.18.22-6.47v-17.69c0-2.18-.06-4.26-.17-6.26a16.79,16.79,0,0,0-1.05-5.29,7.91,7.91,0,0,0-2.85-3.69,9.44,9.44,0,0,0-5.53-1.39,8.78,8.78,0,0,0-4.79,1.17,8.3,8.3,0,0,0-2.88,3.19,14.45,14.45,0,0,0-1.46,4.6,46.42,46.42,0,0,0-.51,5.47v22.79a42.74,42.74,0,0,0,.51,5.16,13.64,13.64,0,0,0,1.46,4.41,8.25,8.25,0,0,0,2.88,3.07A8.87,8.87,0,0,0,1013.29,1733.29Z"/><path class="cls-1" d="M1043.7,1699.07q0-3,.19-6a36.21,36.21,0,0,1,.78-5.67,20.69,20.69,0,0,1,1.78-5,13.1,13.1,0,0,1,8-6.71,25.37,25.37,0,0,1,13.93,0,14.51,14.51,0,0,1,4.88,2.7,12.94,12.94,0,0,1,3.12,4.06,22,22,0,0,1,1.75,5,34.34,34.34,0,0,1,.76,5.61c.1,2,.16,3.91.16,5.83v17.64q0,3-.19,6a38.42,38.42,0,0,1-.78,5.66,21.33,21.33,0,0,1-1.75,5,13.29,13.29,0,0,1-3.1,4,13.56,13.56,0,0,1-4.83,2.68,25.46,25.46,0,0,1-13.92,0,14.43,14.43,0,0,1-4.88-2.71,12.68,12.68,0,0,1-3.13-4.06,23,23,0,0,1-1.77-5,32.27,32.27,0,0,1-.79-5.61c-.1-2-.16-3.9-.16-5.83Zm17.62-16.79a9.59,9.59,0,0,0-5.39,1.31,7.86,7.86,0,0,0-2.88,3.58,17.17,17.17,0,0,0-1.16,5.32q-.21,3-.21,6.47v17.75q0,3.21.16,6.21a16.17,16.17,0,0,0,1.08,5.29,8.1,8.1,0,0,0,2.88,3.69,9.42,9.42,0,0,0,5.52,1.39,9.57,9.57,0,0,0,5.39-1.31,7.78,7.78,0,0,0,2.88-3.58,16.89,16.89,0,0,0,1.16-5.33c.15-2,.22-4.18.22-6.47v-17.69c0-2.18-.06-4.26-.16-6.26a16.77,16.77,0,0,0-1.08-5.29,8.1,8.1,0,0,0-2.88-3.69A9.46,9.46,0,0,0,1061.32,1682.28Z"/><path class="cls-1" d="M1087.9,1675.65h8.3l8.14,56.79h.75l8.14-56.79h12.34l8.19,56.79h.7l8.19-56.79h8.25L1140.82,1740h-13l-8.3-56.73h-.22l-8.19,56.73H1098Z"/><path class="cls-1" d="M1194.61,1718.27v1.12c0,1.75-.06,3.5-.19,5.24a28.38,28.38,0,0,1-.78,5,17.71,17.71,0,0,1-1.75,4.44,12,12,0,0,1-3.1,3.57A14.22,14.22,0,0,1,1184,1740a25,25,0,0,1-6.93.85,22.13,22.13,0,0,1-7-1,14.43,14.43,0,0,1-4.88-2.71,13,13,0,0,1-3.13-4.06,23,23,0,0,1-1.77-5,32.27,32.27,0,0,1-.79-5.61c-.1-2-.16-3.9-.16-5.83v-17.59q0-3,.19-6a36.18,36.18,0,0,1,.81-5.67,22,22,0,0,1,1.78-5,12.94,12.94,0,0,1,3.13-4,13.93,13.93,0,0,1,4.84-2.67,22,22,0,0,1,6.93-1,23.5,23.5,0,0,1,7,.91,14,14,0,0,1,4.85,2.49,12.27,12.27,0,0,1,3.1,3.69,17.89,17.89,0,0,1,1.75,4.54,28.59,28.59,0,0,1,.76,5.05c.11,1.75.16,3.46.16,5.13v10.86l-27.38,4.65v4.6q0,3.21.17,6.23a16,16,0,0,0,1.1,5.32,8.3,8.3,0,0,0,2.91,3.69,9.55,9.55,0,0,0,5.58,1.39,11,11,0,0,0,5.39-1.1,6.92,6.92,0,0,0,2.88-3,12.27,12.27,0,0,0,1.16-4.41q.21-2.52.21-5.4v-1.12Zm-17.62-36a9.57,9.57,0,0,0-5.42,1.33,8.11,8.11,0,0,0-2.93,3.62,16.22,16.22,0,0,0-1.19,5.32c-.14,2-.22,4.18-.22,6.47v6l19.4-3.42v-5.14c0-1.78-.05-3.52-.16-5.21a12.52,12.52,0,0,0-1.08-4.55,7.34,7.34,0,0,0-2.88-3.23A10.41,10.41,0,0,0,1177,1682.28Z"/><path class="cls-1" d="M1232.45,1683.56a11.72,11.72,0,0,1-2-.59,9.7,9.7,0,0,0-3.24-.48h0a8.49,8.49,0,0,0-5.22,1.45,9.26,9.26,0,0,0-3,3.85,18.54,18.54,0,0,0-1.37,5.51q-.33,3.09-.38,6.36V1740h-8V1675.7h8v7.54a17.34,17.34,0,0,1,1.59-3.42,10.77,10.77,0,0,1,2.29-2.68,10.2,10.2,0,0,1,3.18-1.76,12.61,12.61,0,0,1,4.2-.64,12.17,12.17,0,0,1,1.94.16,9.23,9.23,0,0,1,1.94.53Z"/><path class="cls-1" d="M1299.46,1720a34.54,34.54,0,0,1-1,8.79,17,17,0,0,1-3.23,6.56,14.12,14.12,0,0,1-5.68,4.08,22.09,22.09,0,0,1-8.38,1.42,24.36,24.36,0,0,1-9.54-1.55A13,13,0,0,1,1266,1735a15.93,15.93,0,0,1-2.64-6.71,53.2,53.2,0,0,1-.64-8.62v-3.89h8.08v3.57a42,42,0,0,0,.38,6.13,10.61,10.61,0,0,0,1.51,4.33,6.62,6.62,0,0,0,3.12,2.56,13.67,13.67,0,0,0,5.23.83,10.75,10.75,0,0,0,4.87-1,8,8,0,0,0,3.16-2.73,11.64,11.64,0,0,0,1.7-4.14,25.15,25.15,0,0,0,.51-5.23v-.55a24.36,24.36,0,0,0-.49-5.07,14.36,14.36,0,0,0-1.48-4,13.16,13.16,0,0,0-2.56-3.23,22.39,22.39,0,0,0-3.72-2.73l-7.81-4.7a35.84,35.84,0,0,1-5.69-4.12,17.58,17.58,0,0,1-3.66-4.6,19.19,19.19,0,0,1-2-5.59,38.54,38.54,0,0,1-.59-7.14v-1.12q0-9.53,4.58-14.49t13.47-5a21.15,21.15,0,0,1,8.11,1.4,14.24,14.24,0,0,1,5.55,3.95,16.24,16.24,0,0,1,3.21,6.23,30.6,30.6,0,0,1,1,8.21v5.29h-8.08l-.11-6.63a16.49,16.49,0,0,0-.62-4.2,10.1,10.1,0,0,0-1.72-3.42,7.9,7.9,0,0,0-3-2.3,10.76,10.76,0,0,0-4.42-.83,10.2,10.2,0,0,0-4.72,1,8.35,8.35,0,0,0-3.1,2.73,11.16,11.16,0,0,0-1.67,4,19.26,19.26,0,0,0-.37,4.86l0,1.87a13.32,13.32,0,0,0,2.37,7.44,18.26,18.26,0,0,0,6,5.4l7.55,4.33a26.82,26.82,0,0,1,5.46,4.09,20.56,20.56,0,0,1,3.67,4.84,22.08,22.08,0,0,1,2.13,5.72,35.75,35.75,0,0,1,.81,6.74Z"/><path class="cls-1" d="M1346,1718.27v1.12c0,1.75-.07,3.5-.19,5.24a29.34,29.34,0,0,1-.78,5,18.1,18.1,0,0,1-1.75,4.44,12.11,12.11,0,0,1-3.1,3.57,14.31,14.31,0,0,1-4.82,2.39,25,25,0,0,1-6.93.85,22.24,22.24,0,0,1-7-1,14.38,14.38,0,0,1-4.87-2.71,13,13,0,0,1-3.13-4.06,23.6,23.6,0,0,1-1.78-5,33.27,33.27,0,0,1-.78-5.61c-.11-2-.16-3.9-.16-5.83v-17.59q0-3,.19-6a35,35,0,0,1,.81-5.67,22,22,0,0,1,1.78-5,13.05,13.05,0,0,1,3.12-4,14.07,14.07,0,0,1,4.85-2.67,22,22,0,0,1,6.93-1,23.5,23.5,0,0,1,7,.91,14.13,14.13,0,0,1,4.85,2.49,12.41,12.41,0,0,1,3.1,3.69,17.89,17.89,0,0,1,1.75,4.54,28.59,28.59,0,0,1,.76,5.05c.11,1.75.16,3.46.16,5.13v10.86l-27.38,4.65v4.6c0,2.14.06,4.22.16,6.23a16.29,16.29,0,0,0,1.11,5.32,8.3,8.3,0,0,0,2.91,3.69,9.55,9.55,0,0,0,5.58,1.39,11.06,11.06,0,0,0,5.39-1.1,6.92,6.92,0,0,0,2.88-3,12.27,12.27,0,0,0,1.16-4.41q.21-2.52.21-5.4v-1.12Zm-17.62-36a9.55,9.55,0,0,0-5.42,1.33,8.11,8.11,0,0,0-2.93,3.62,16.22,16.22,0,0,0-1.19,5.32c-.15,2-.22,4.18-.22,6.47v6l19.4-3.42v-5.14c0-1.78,0-3.52-.16-5.21a12.94,12.94,0,0,0-1.08-4.55,7.4,7.4,0,0,0-2.88-3.23A10.41,10.41,0,0,0,1328.41,1682.28Z"/><path class="cls-1" d="M1383.88,1683.56a11.26,11.26,0,0,1-2-.59,9.75,9.75,0,0,0-3.24-.48h0a8.55,8.55,0,0,0-5.24,1.45,9.32,9.32,0,0,0-3,3.85,18.24,18.24,0,0,0-1.37,5.51q-.33,3.09-.38,6.36V1740h-8V1675.7h8v7.54a17.34,17.34,0,0,1,1.59-3.42,10.77,10.77,0,0,1,2.29-2.68,10.2,10.2,0,0,1,3.18-1.76,12.61,12.61,0,0,1,4.2-.64,12.17,12.17,0,0,1,1.94.16,9.67,9.67,0,0,1,2,.53Z"/><path class="cls-1" d="M1425.92,1675.65,1412.66,1740h-12l-13.31-64.32h8.24l10.73,56.79h.69l10.67-56.79Z"/><path class="cls-1" d="M1435.3,1660.14a4.28,4.28,0,0,1,1.16-3.21,5.14,5.14,0,0,1,3.69-1.12c1.87,0,3.19.37,4,1.12a4.24,4.24,0,0,1,1.16,3.21,4.07,4.07,0,0,1-1.16,3.13c-.77.73-2.09,1.09-4,1.09a5.23,5.23,0,0,1-3.69-1.09A4.1,4.1,0,0,1,1435.3,1660.14Zm.92,79.83V1675.7h8V1740Z"/><path class="cls-1" d="M1486.25,1719h8v.75c0,1.64-.06,3.3-.19,5a28.65,28.65,0,0,1-.78,4.86,17.68,17.68,0,0,1-1.76,4.41,11.7,11.7,0,0,1-3.12,3.59,15.17,15.17,0,0,1-4.85,2.4,23.77,23.77,0,0,1-6.92.88,22.2,22.2,0,0,1-7-1,14.38,14.38,0,0,1-4.87-2.71,12.9,12.9,0,0,1-3.13-4,21.51,21.51,0,0,1-1.75-5,36.1,36.1,0,0,1-.78-5.61q-.19-2.93-.19-5.86v-18.58c0-1,0-2,.05-3a40.75,40.75,0,0,1,.81-7.81,17.38,17.38,0,0,1,2.69-6.49,13.47,13.47,0,0,1,5.34-4.44,20.3,20.3,0,0,1,8.78-1.63,23.53,23.53,0,0,1,7,.91,14.81,14.81,0,0,1,4.88,2.46,11.89,11.89,0,0,1,3.1,3.63,20.45,20.45,0,0,1,1.74,4.41,24.75,24.75,0,0,1,.79,4.82c.11,1.65.16,3.27.16,4.83v.86h-8v-.86c0-1.6-.06-3.2-.17-4.81a11.35,11.35,0,0,0-1.11-4.35,7.4,7.4,0,0,0-2.9-3.16,10.68,10.68,0,0,0-5.53-1.2,9.53,9.53,0,0,0-5.38,1.31,7.81,7.81,0,0,0-2.89,3.58,16.89,16.89,0,0,0-1.16,5.32q-.21,3-.21,6.47v14.55c0,1.85,0,3.67,0,5.45s.1,3.51.25,5.19a16.44,16.44,0,0,0,.78,3.58,9,9,0,0,0,1.61,2.89,7.52,7.52,0,0,0,2.75,2,10.89,10.89,0,0,0,4.23.72,10.66,10.66,0,0,0,5.34-1.12,7.31,7.31,0,0,0,2.91-3,12.08,12.08,0,0,0,1.21-4.33c.16-1.62.25-3.3.25-5Z"/><path class="cls-1" d="M1541.38,1718.27v1.12c0,1.75-.07,3.5-.19,5.24a29.33,29.33,0,0,1-.79,5,17.69,17.69,0,0,1-1.74,4.44,12.11,12.11,0,0,1-3.1,3.57,14.31,14.31,0,0,1-4.82,2.39,25,25,0,0,1-6.93.85,22.24,22.24,0,0,1-7-1,14.47,14.47,0,0,1-4.87-2.71,12.68,12.68,0,0,1-3.13-4.06,23,23,0,0,1-1.77-5,32.27,32.27,0,0,1-.79-5.61q-.16-2.94-.16-5.83v-17.59q0-3,.19-6a35,35,0,0,1,.8-5.67,23.56,23.56,0,0,1,1.78-5,13.24,13.24,0,0,1,3.13-4,14.07,14.07,0,0,1,4.85-2.67,22.08,22.08,0,0,1,6.93-1,23.5,23.5,0,0,1,7,.91,14.13,14.13,0,0,1,4.85,2.49,12.41,12.41,0,0,1,3.1,3.69,18.67,18.67,0,0,1,1.75,4.54,29.55,29.55,0,0,1,.76,5.05c.1,1.75.16,3.46.16,5.13v10.86l-27.37,4.65v4.6c0,2.14,0,4.22.15,6.23a16.29,16.29,0,0,0,1.11,5.32,8.23,8.23,0,0,0,2.91,3.69,9.55,9.55,0,0,0,5.58,1.39,11,11,0,0,0,5.38-1.1,6.89,6.89,0,0,0,2.89-3,12.07,12.07,0,0,0,1.16-4.41q.21-2.52.21-5.4v-1.12Zm-17.62-36a9.55,9.55,0,0,0-5.42,1.33,8.13,8.13,0,0,0-2.94,3.62,16.48,16.48,0,0,0-1.18,5.32c-.14,2-.21,4.18-.21,6.47v6l19.39-3.42v-5.14c0-1.78-.05-3.52-.16-5.21a12.94,12.94,0,0,0-1.08-4.55,7.4,7.4,0,0,0-2.88-3.23A10.43,10.43,0,0,0,1523.76,1682.28Z"/><path class="cls-1" d="M1586.49,1722.81a26.05,26.05,0,0,1-1,7.41,14.59,14.59,0,0,1-3.13,5.69,14.2,14.2,0,0,1-5.44,3.66,21.73,21.73,0,0,1-8,1.31,20.4,20.4,0,0,1-8.41-1.52,13.31,13.31,0,0,1-5.31-4.22,16.59,16.59,0,0,1-2.75-6.42,39.83,39.83,0,0,1-.77-8.16h8a26.62,26.62,0,0,0,.41,4.65,12,12,0,0,0,1.45,4.1,8.21,8.21,0,0,0,2.83,2.88,8.54,8.54,0,0,0,4.53,1.1c3.12,0,5.44-.85,7-2.57a10.28,10.28,0,0,0,2.29-7.11,9.52,9.52,0,0,0-1.1-4.68,13.14,13.14,0,0,0-2.94-3.58,27.5,27.5,0,0,0-4.15-2.92l-4.74-2.72q-2.43-1.39-4.74-2.94a22.6,22.6,0,0,1-4.15-3.56,15.58,15.58,0,0,1-2.94-4.65,15.85,15.85,0,0,1-1.1-6.17,26.05,26.05,0,0,1,1-7.44,14.11,14.11,0,0,1,3-5.53,13.12,13.12,0,0,1,5.28-3.48,25.14,25.14,0,0,1,14.93-.13,12.4,12.4,0,0,1,5.23,3.37,14.55,14.55,0,0,1,3.15,5.9,31.33,31.33,0,0,1,1,8.75h-8a25.08,25.08,0,0,0-.4-4.57,10.44,10.44,0,0,0-1.4-3.67,7.11,7.11,0,0,0-2.67-2.43,9,9,0,0,0-4.21-.88,9.1,9.1,0,0,0-3.77.75,8.64,8.64,0,0,0-2.83,2A8.39,8.39,0,0,0,1561,1688a10.73,10.73,0,0,0-.6,3.61,8.51,8.51,0,0,0,1.14,4.47,14,14,0,0,0,3,3.47,27,27,0,0,0,4.17,2.94q2.34,1.36,4.8,2.76c1.63.93,3.23,1.92,4.79,3a23.3,23.3,0,0,1,4.18,3.66,17.11,17.11,0,0,1,3,4.73A15.75,15.75,0,0,1,1586.49,1722.81Z"/><path class="cls-1" d="M1598.32,1736.07q0-5,5-5c2,0,3.32.56,4.13,1.68a7.07,7.07,0,0,1,1.21,4.25,24.71,24.71,0,0,1-.4,4.58,22,22,0,0,1-1.06,3.74,19.72,19.72,0,0,1-1.42,3,24.61,24.61,0,0,1-1.54,2.35l-3.88-2.08c.47-.75.88-1.45,1.22-2.09a16.69,16.69,0,0,0,.84-1.87,17.83,17.83,0,0,0,.53-1.82,17,17,0,0,0,.33-2C1600,1740.88,1598.32,1739.28,1598.32,1736.07Z"/><path class="cls-1" d="M1647.75,1740v-81.33h8.14V1740Z"/><path class="cls-1" d="M1700.19,1740v-41.06q0-3.21-.1-6.18a17,17,0,0,0-1-5.29,7.9,7.9,0,0,0-2.75-3.72,9.13,9.13,0,0,0-5.49-1.39,8,8,0,0,0-5.26,1.63,10.59,10.59,0,0,0-3,4.28,22.51,22.51,0,0,0-1.37,6q-.32,3.35-.32,6.76v39h-8V1675.7h8v7.65a14.31,14.31,0,0,1,1.86-3.32,13.38,13.38,0,0,1,2.74-2.73,13.09,13.09,0,0,1,3.59-1.84,13.38,13.38,0,0,1,4.31-.67,16.87,16.87,0,0,1,6.17,1,11.58,11.58,0,0,1,4.15,2.7,12.09,12.09,0,0,1,2.56,4.07,23.56,23.56,0,0,1,1.32,5,45.08,45.08,0,0,1,.48,5.62c.06,2,.08,3.9.08,5.83v41Z"/><path class="cls-1" d="M1749.46,1719h8v.75c0,1.64-.07,3.3-.19,5a28.65,28.65,0,0,1-.79,4.86,17.65,17.65,0,0,1-1.75,4.41,11.83,11.83,0,0,1-3.12,3.59,15.12,15.12,0,0,1-4.86,2.4,23.72,23.72,0,0,1-6.92.88,22.09,22.09,0,0,1-7-1,14.33,14.33,0,0,1-4.88-2.71,13.2,13.2,0,0,1-3.13-4,22,22,0,0,1-1.75-5,38.68,38.68,0,0,1-.78-5.61c-.12-2-.19-3.9-.19-5.86v-18.58q0-1.47.06-3a41.57,41.57,0,0,1,.8-7.81,17.4,17.4,0,0,1,2.7-6.49,13.44,13.44,0,0,1,5.33-4.44,20.35,20.35,0,0,1,8.79-1.63,23.62,23.62,0,0,1,7,.91,14.85,14.85,0,0,1,4.87,2.46,11.89,11.89,0,0,1,3.1,3.63,20.48,20.48,0,0,1,1.75,4.41,24,24,0,0,1,.78,4.82c.11,1.65.17,3.27.17,4.83v.86h-8v-.86c0-1.6,0-3.2-.16-4.81a11.72,11.72,0,0,0-1.11-4.35,7.49,7.49,0,0,0-2.91-3.16,10.62,10.62,0,0,0-5.52-1.2,9.57,9.57,0,0,0-5.39,1.31,7.79,7.79,0,0,0-2.88,3.58,16.89,16.89,0,0,0-1.16,5.32q-.22,3-.22,6.47v14.55c0,1.85,0,3.67,0,5.45s.1,3.51.24,5.19a16.44,16.44,0,0,0,.78,3.58,8.87,8.87,0,0,0,1.62,2.89,7.52,7.52,0,0,0,2.75,2,10.86,10.86,0,0,0,4.23.72,10.65,10.65,0,0,0,5.33-1.12,7.28,7.28,0,0,0,2.92-3,12.08,12.08,0,0,0,1.21-4.33c.15-1.62.24-3.3.24-5Z"/><path class="cls-1" d="M1770.11,1736.07a4.38,4.38,0,0,1,5.06-5c1.95,0,3.31.42,4.1,1.25a5.2,5.2,0,0,1,1.19,3.72,4.9,4.9,0,0,1-1.19,3.58c-.79.83-2.15,1.23-4.1,1.23a5.19,5.19,0,0,1-3.85-1.23A4.9,4.9,0,0,1,1770.11,1736.07Z"/><path class="cls-1" d="M1215,1377.6l-.77,170.46c0,24.68-30.35,41.14-76.91,41.14-49,0-73.09-20-83.48-38.94H996.47c0,13.62,11.48,77.42,141.62,77.42,154.86,0,147-74.64,147-74.64l.81-175.22Zm35.37,118.55a14.56,14.56,0,1,1-14.68,14.56A14.62,14.62,0,0,1,1250.35,1496.15Zm0,92.66c-15.16,15-42.56,31.47-112,31.47-.21,0-2.47.15-6.09.15-64,0-92.63-19.81-107.08-36.86a51.9,51.9,0,0,1-10.4-21h29s13.75,38.1,89.49,38.1c2.41,0,3.94-.06,4.34-.08,68.62,0,98-25.83,98-50.8v-17.31H1265v21.17A49.16,49.16,0,0,1,1250.35,1588.81Zm-639-143.63c0-55.61-75.83-69.53-181.44-69.53H267.54v247h66v-97.41h97.09l118.45,97.41h77.76L500.14,1519.15C564,1519.15,611.36,1483.65,611.36,1445.18Zm-312,51a14.56,14.56,0,1,1-14.68,14.56A14.62,14.62,0,0,1,299.37,1496.15Zm18.5,120.9H282.78V1531.6h35.09Zm15.65-215.91h86.93c80.67,0,125.09,6,125.09,44,0,21.41-26.11,42.39-69.15,42.39H333.52Zm79,94,44.67-.76,24.32,19.65-45.51.43Zm191.34,119.3-49.52.32-108.76-90.26,44.57-1.88ZM985,1445.18c0-55.61-75.83-69.53-181.44-69.53H641.18v247h66v-97.41h97.1l118.45,97.41h77.75L873.78,1519.15C937.59,1519.15,985,1483.65,985,1445.18Zm-312,51a14.56,14.56,0,1,1-14.67,14.56A14.62,14.62,0,0,1,673,1496.15Zm18.5,120.9H656.42V1531.6H691.5Zm15.65-215.91h86.93c80.68,0,125.1,6,125.1,44,0,21.41-26.11,42.39-69.16,42.39H707.15Zm79,94,44.67-.76,24.32,19.65-45.52.43Zm191.34,119.3-49.52.32-108.76-90.26,44.57-1.88Zm719-236.64-165.62,126.12L1366.5,1377.82H1303v244h64.81V1445.68l133.34,106.93h59.41l133.34-106.93v176.09h64.81v-244Zm-360,118.33a14.56,14.56,0,1,1-14.68,14.56A14.62,14.62,0,0,1,1336.55,1496.15Zm17.54,120.9H1319V1531.6h35.09Zm373-120.9a14.56,14.56,0,1,1-14.67,14.56A14.62,14.62,0,0,1,1727.09,1496.15Zm17.54,120.9h-35.08V1531.6h35.08Z"/></svg>